<svg xmlns="http://www.w3.org/2000/svg" viewBox="0 0 64 64" fill="none">
  <defs>
    <linearGradient id="starGrad" x1="0%" y1="0%" x2="100%" y2="100%">
      <stop offset="0%" style="stop-color:#fff0f5;stop-opacity:1" />
      <stop offset="100%" style="stop-color:#ff69b4;stop-opacity:1" />
    </linearGradient>
    <filter id="glow" x="-50%" y="-50%" width="200%" height="200%">
      <feGaussianBlur stdDeviation="2" result="blur"/>
      <feComposite in="SourceGraphic" in2="blur" operator="over"/>
    </filter>
  </defs>
  
  <!-- Outer Glow Ring -->
  <circle cx="32" cy="32" r="28" stroke="#ffb6c1" stroke-width="1" fill="none" opacity="0.6" />
  
  <!-- Main Star -->
  <path d="M32 4 C35 20 44 29 60 32 C44 35 35 44 32 60 C29 44 20 35 4 32 C20 29 29 20 32 4 Z" 
        fill="url(#starGrad)" 
        stroke="#ff1493" 
        stroke-width="1.5"
        filter="url(#glow)" 
  />
  
  <!-- Center Gem -->
  <circle cx="32" cy="32" r="6" fill="#ff1493" stroke="#fff" stroke-width="1.5" />
  
  <!-- Sparkles -->
  <path d="M50 12 L52 16 L56 18 L52 20 L50 24 L48 20 L44 18 L48 16 Z" fill="#ffd700" />
  <path d="M14 48 L15 50 L17 51 L15 52 L14 54 L13 52 L11 51 L13 50 Z" fill="#ffd700" />
</svg>